<svg xmlns="http://www.w3.org/2000/svg" viewBox="0 0 169.86726 38.67295"><title>logo</title><polygon points="23.241 20.168 34.862 13.458 23.241 6.709 23.241 20.168" style="fill:#2a3d58"/><polygon points="23.241 20.168 11.621 13.458 23.241 6.709 23.241 20.168" style="fill:#0f2631"/><polygon points="34.862 0 23.241 6.709 34.862 13.458 34.862 0" style="fill:#0f2631"/><polygon points="34.862 0 46.483 6.709 34.862 13.458 34.862 0" style="fill:#2a3d58"/><polygon points="11.621 0 0 6.709 11.621 13.458 11.621 0" style="fill:#0f2631"/><polygon points="11.621 0 23.241 6.709 11.621 13.458 11.621 0" style="fill:#2a3d58"/><polygon points="23.241 38.673 34.862 31.964 23.241 25.215 23.241 38.673" style="fill:#2a3d58"/><polygon points="23.241 38.673 11.621 31.964 23.241 25.215 23.241 38.673" style="fill:#0f2631"/><polygon points="34.862 18.505 23.241 25.215 34.862 31.964 34.862 18.505" style="fill:#0f2631"/><polygon points="34.862 18.505 46.483 25.215 34.862 31.964 34.862 18.505" style="fill:#2a3d58"/><polygon points="11.621 18.505 0 25.215 11.621 31.964 11.621 18.505" style="fill:#0f2631"/><polygon points="11.621 18.505 23.241 25.215 11.621 31.964 11.621 18.505" style="fill:#2a3d58"/></svg>